# Cube with Normals
# Vertices
v -1.0 -1.0  1.0
v  1.0 -1.0  1.0
v -1.0  1.0  1.0
v  1.0  1.0  1.0
v -1.0  1.0 -1.0
v  1.0  1.0 -1.0
v -1.0 -1.0 -1.0
v  1.0 -1.0 -1.0

# Normals
vn  0.0  0.0  1.0
vn  0.0  0.0 -1.0
vn  0.0  1.0  0.0
vn  0.0 -1.0  0.0
vn  1.0  0.0  0.0
vn -1.0  0.0  0.0

# Faces (v//vn)
# Front (Z+)
f 1//1 2//1 3//1
f 3//1 2//1 4//1
# Back (Z-)
f 5//2 6//2 7//2
f 7//2 6//2 8//2
# Top (Y+)
f 3//3 4//3 5//3
f 5//3 4//3 6//3
# Bottom (Y-)
f 7//4 8//4 1//4
f 1//4 8//4 2//4
# Right (X+)
f 2//5 8//5 4//5
f 4//5 8//5 6//5
# Left (X-)
f 7//6 1//6 5//6
f 5//6 1//6 3//6
